<svg width="81" height="80" viewBox="0 0 81 80" fill="none" xmlns="http://www.w3.org/2000/svg">
<path d="M44.8675 62.3403L44.8675 60.3403L42.8676 60.3403L42.8675 62.3403L44.8675 62.3403ZM69.0508 40.0781L70.2261 41.6963L70.2149 38.4518L69.0508 40.0781ZM44.7741 17.6632L42.7742 17.6409L42.7516 19.6632L44.7741 19.6632L44.7741 17.6632ZM44.8674 9.31457L44.8674 7.31457L42.8897 7.31457L42.8676 9.2922L44.8674 9.31457ZM78.25 43.1531L79.208 44.9087L80.25 44.3401L80.25 43.1531L78.25 43.1531ZM44.8674 70.6855L42.8674 70.6855L42.8674 72.6855L44.8674 72.6855L44.8674 70.6855ZM78.25 37.5398L80.25 37.5398L80.25 36.4312L79.31 35.8438L78.25 37.5398ZM76.6914 44.0036L77.6494 45.7592L76.6914 44.0036ZM76.1817 36.2471L75.1217 37.9431L76.1817 36.2471ZM66.7488 38.4304L67.9129 36.8041L66.7488 38.4304ZM63.4053 31.9658L65.4053 31.9556L63.4053 31.9658ZM66.7247 41.7676L67.9001 43.3858L66.7247 41.7676ZM65.4261 57.3403L65.4261 48.2404L61.4261 48.2404L61.4261 57.3403L65.4261 57.3403ZM67.9001 43.3858L70.2261 41.6963L67.8754 38.4599L65.5494 40.1494L67.9001 43.3858ZM70.2149 38.4518L67.9129 36.8041L65.5847 40.0567L67.8867 41.7044L70.2149 38.4518ZM65.4053 31.9556L65.358 22.6277L61.358 22.648L61.4054 31.9759L65.4053 31.9556ZM58.358 15.6632L44.7741 15.6632L44.7741 19.6632L58.358 19.6632L58.358 15.6632ZM46.7739 17.6856L46.8673 9.33694L42.8676 9.2922L42.7742 17.6409L46.7739 17.6856ZM44.8674 11.3146L60.4815 11.3146L60.4815 7.31457L44.8674 7.31457L44.8674 11.3146ZM69.4815 20.3146L69.4815 27.767L73.4815 27.767L73.4815 20.3146L69.4815 20.3146ZM77.292 41.3975L75.7334 42.248L77.6494 45.7592L79.208 44.9087L77.292 41.3975ZM69.4815 52.7817L69.4815 59.6856L73.4815 59.6856L73.4815 52.7817L69.4815 52.7817ZM60.4815 68.6855L44.8674 68.6855L44.8674 72.6855L60.4815 72.6855L60.4815 68.6855ZM44.8675 64.3403L58.4261 64.3403L58.4261 60.3403L44.8675 60.3403L44.8675 64.3403ZM46.8674 70.6856L46.8675 62.3404L42.8675 62.3403L42.8674 70.6855L46.8674 70.6856ZM75.1217 37.9431L77.19 39.2358L79.31 35.8438L77.2417 34.5511L75.1217 37.9431ZM76.25 37.5398L76.25 43.1531L80.25 43.1531L80.25 37.5398L76.25 37.5398ZM75.7334 42.248C71.8793 44.3511 69.4815 48.3911 69.4815 52.7817L73.4815 52.7817C73.4815 49.8546 75.0801 47.1613 77.6494 45.7592L75.7334 42.248ZM69.4815 27.767C69.4815 31.9046 71.613 35.7503 75.1217 37.9431L77.2417 34.5511C74.9025 33.0892 73.4815 30.5254 73.4815 27.767L69.4815 27.767ZM60.4815 11.3146C65.4521 11.3146 69.4815 15.344 69.4815 20.3146L73.4815 20.3146C73.4815 13.1349 67.6612 7.31457 60.4815 7.31457L60.4815 11.3146ZM65.358 22.6277C65.3384 18.7756 62.2102 15.6632 58.358 15.6632L58.358 19.6632C60.009 19.6632 61.3496 20.9971 61.358 22.648L65.358 22.6277ZM67.9129 36.8041C66.3477 35.6837 65.4151 33.8804 65.4053 31.9556L61.4054 31.9759C61.4217 35.184 62.9761 38.1894 65.5847 40.0567L67.9129 36.8041ZM65.4261 48.2404C65.4261 46.3195 66.3458 44.5147 67.9001 43.3858L65.5494 40.1494C62.959 42.0308 61.4261 45.0388 61.4261 48.2404L65.4261 48.2404ZM69.4815 59.6856C69.4815 64.6561 65.4521 68.6855 60.4815 68.6855L60.4815 72.6855C67.6612 72.6855 73.4815 66.8653 73.4815 59.6856L69.4815 59.6856ZM61.4261 57.3403C61.4261 58.9972 60.083 60.3403 58.4261 60.3403L58.4261 64.3403C62.2921 64.3403 65.4261 61.2063 65.4261 57.3403L61.4261 57.3403Z" fill="#D8262C"/>
<path d="M46.6697 62.2895L49.4261 62.2895C52.1875 62.2896 54.4261 60.051 54.4261 57.2896L54.4261 48.1896C54.4261 45.6284 55.6524 43.222 57.7247 41.7168L60.0508 40.0273L57.7607 38.3881C55.6671 36.8895 54.4228 34.4749 54.4172 31.9003L54.397 22.6549C54.391 19.8978 52.1542 17.6658 49.397 17.6658L46.6297 17.6658" stroke="#D8262C" stroke-width="4" stroke-linejoin="bevel"/>
<path d="M44.9722 17.6597V19.6597H46.9722L46.9722 17.6597L44.9722 17.6597ZM20.5049 39.9219L19.3295 38.3037L19.3408 41.5482L20.5049 39.9219ZM44.9723 62.2434H46.9723V60.2434H44.9723V62.2434ZM44.9723 70.6854V72.6854H46.9723V70.6854H44.9723ZM11.3057 35.8469L10.5662 33.9886L9.30566 34.4903V35.8469H11.3057ZM44.9723 9.31446L46.9723 9.31448L46.9724 7.31446L44.9723 7.31446V9.31446ZM11.3057 43.4602H9.30566V44.7218L10.4443 45.2652L11.3057 43.4602ZM11.7716 35.6615L11.0321 33.8032L11.7716 35.6615ZM22.786 41.5547L21.6219 43.181L22.786 41.5547ZM22.8309 38.2324L21.6556 36.6142L22.8309 38.2324ZM24.1296 22.6597V31.7596H28.1296V22.6597H24.1296ZM21.6556 36.6142L19.3295 38.3037L21.6802 41.5401L24.0063 39.8506L21.6556 36.6142ZM19.3408 41.5482L21.6219 43.181L23.9501 39.9284L21.669 38.2956L19.3408 41.5482ZM24.1296 48.0599V57.2434H28.1296V48.0599H24.1296ZM31.1296 64.2434H44.9723V60.2434H31.1296V64.2434ZM42.9723 62.2434V70.6854H46.9723V62.2434H42.9723ZM44.9723 68.6854H29.0741V72.6854H44.9723V68.6854ZM20.0741 59.6854V52.9984H16.0741V59.6854H20.0741ZM12.0452 37.7052L12.5111 37.5198L11.0321 33.8032L10.5662 33.9886L12.0452 37.7052ZM20.0741 26.3702V20.3144H16.0741V26.3702H20.0741ZM29.0741 11.3145L44.9723 11.3145V7.31446L29.0741 7.31445L29.0741 11.3145ZM44.9722 15.6597L31.1296 15.6597V19.6597L44.9722 19.6597V15.6597ZM42.9723 9.31443L42.9722 17.6596L46.9722 17.6597L46.9723 9.31448L42.9723 9.31443ZM13.2425 42.1685L12.1671 41.6552L10.4443 45.2652L11.5197 45.7785L13.2425 42.1685ZM13.3057 43.4602V35.8469H9.30566V43.4602H13.3057ZM12.5111 37.5198C17.0774 35.7026 20.0741 31.2848 20.0741 26.3702H16.0741C16.0741 29.6466 14.0763 32.5918 11.0321 33.8032L12.5111 37.5198ZM20.0741 52.9984C20.0741 48.3736 17.4164 44.1604 13.2425 42.1685L11.5197 45.7785C14.3023 47.1064 16.0741 49.9152 16.0741 52.9984H20.0741ZM29.0741 68.6854C24.1036 68.6854 20.0741 64.656 20.0741 59.6854H16.0741C16.0741 66.8651 21.8944 72.6854 29.0741 72.6854V68.6854ZM24.1296 57.2434C24.1296 61.1094 27.2636 64.2434 31.1296 64.2434V60.2434C29.4727 60.2434 28.1296 58.9002 28.1296 57.2434H24.1296ZM21.6219 43.181C23.1958 44.3076 24.1296 46.1243 24.1296 48.0599H28.1296C28.1296 44.8339 26.5733 41.8061 23.9501 39.9284L21.6219 43.181ZM24.1296 31.7596C24.1296 33.6805 23.2098 35.4853 21.6556 36.6142L24.0063 39.8506C26.5967 37.9692 28.1296 34.9612 28.1296 31.7596H24.1296ZM20.0741 20.3144C20.0741 15.3439 24.1036 11.3145 29.0741 11.3145L29.0741 7.31445C21.8944 7.31445 16.0741 13.1347 16.0741 20.3144H20.0741ZM28.1296 22.6597C28.1296 21.0028 29.4727 19.6597 31.1296 19.6597V15.6597C27.2636 15.6597 24.1296 18.7937 24.1296 22.6597H28.1296Z" fill="#D8262C"/>
<path d="M34.2513 70.6854H20.0741C13.999 70.6854 9.07413 65.7606 9.07413 59.6854V51.7368C9.07413 48.6536 7.30232 45.8448 4.51973 44.5169L2.30566 43.4602V35.8469L4.0321 35.1599C7.07631 33.9484 9.07413 31.0032 9.07413 27.7268V20.3144C9.07413 14.2393 13.999 9.31445 20.0741 9.31445L34.2513 9.31446" stroke="#D8262C" stroke-width="4"/>
<path d="M3.27539 35.757H11.3057" stroke="#D8262C" stroke-width="4"/>
<path d="M3.27588 43.769L12.0123 43.769" stroke="#D8262C" stroke-width="4"/>
<path d="M58.6157 40.412H68.8225" stroke="#D8262C" stroke-width="4"/>
</svg>
